<svg width="24" height="21" viewBox="0 0 24 21" fill="none" xmlns="http://www.w3.org/2000/svg">
<g clip-path="url(#clip0_1328_53)">
<path d="M12.0002 20.1923C11.7681 20.1923 11.5717 20.1166 11.411 19.9651L3.05445 12.3678C2.96517 12.3005 2.84241 12.1911 2.68617 12.0397C2.52994 11.8882 2.28219 11.6127 1.94292 11.213C1.60366 10.8134 1.30011 10.4032 1.03228 9.98257C0.764437 9.5619 0.525615 9.05289 0.315808 8.45553C0.106002 7.85817 0.00109863 7.27765 0.00109863 6.71394C0.00109863 4.86298 0.568022 3.41587 1.70187 2.3726C2.83572 1.32933 4.40257 0.807693 6.40243 0.807693C6.95596 0.807693 7.52065 0.898138 8.0965 1.07903C8.67235 1.25992 9.20803 1.50391 9.70353 1.811C10.199 2.11809 10.6253 2.40625 10.9825 2.67548C11.3396 2.94471 11.6788 3.23077 12.0002 3.53365C12.3216 3.23077 12.6609 2.94471 13.018 2.67548C13.3751 2.40625 13.8015 2.11809 14.297 1.811C14.7925 1.50391 15.3281 1.25992 15.904 1.07903C16.4798 0.898138 17.0445 0.807693 17.5981 0.807693C19.5979 0.807693 21.1648 1.32933 22.2986 2.3726C23.4325 3.41587 23.9994 4.86298 23.9994 6.71394C23.9994 8.57332 22.9771 10.4663 20.9326 12.393L12.5895 19.9651C12.4288 20.1166 12.2324 20.1923 12.0002 20.1923Z" fill="#8C8C8C"/>
</g>
<defs>
<clipPath id="clip0_1328_53">
<rect width="24" height="19.3846" fill="white" transform="translate(0 0.807693)"/>
</clipPath>
</defs>
</svg>
