<svg width="19" height="16" viewBox="0 0 19 16" fill="none" xmlns="http://www.w3.org/2000/svg">
<g clip-path="url(#clip0_2_610)">
<path d="M9.21686 16C9.03858 16 8.88772 15.9375 8.76429 15.8125L2.346 9.54167C2.27743 9.48611 2.18314 9.39583 2.06314 9.27083C1.94314 9.14583 1.75286 8.9184 1.49228 8.58854C1.23171 8.25868 0.99857 7.92014 0.792855 7.57292C0.587141 7.22569 0.403712 6.80556 0.242569 6.3125C0.081426 5.81944 0.000854492 5.34028 0.000854492 4.875C0.000854492 3.34722 0.436284 2.15278 1.30714 1.29167C2.178 0.430556 3.38143 0 4.91743 0C5.34257 0 5.77629 0.0746528 6.21858 0.223958C6.66086 0.373264 7.07229 0.574653 7.45286 0.828125C7.83343 1.0816 8.16086 1.31944 8.43515 1.54167C8.70943 1.76389 8.97001 2 9.21686 2.25C9.46372 2 9.72429 1.76389 9.99858 1.54167C10.2729 1.31944 10.6003 1.0816 10.9809 0.828125C11.3614 0.574653 11.7729 0.373264 12.2152 0.223958C12.6574 0.0746528 13.0912 0 13.5163 0C15.0523 0 16.2557 0.430556 17.1266 1.29167C17.9974 2.15278 18.4329 3.34722 18.4329 4.875C18.4329 6.40972 17.6477 7.97222 16.0774 9.5625L9.66944 15.8125C9.54601 15.9375 9.39515 16 9.21686 16Z" fill="#32C0C6"/>
</g>
<defs>
<clipPath id="clip0_2_610">
<rect width="18.4333" height="16" fill="white"/>
</clipPath>
</defs>
</svg>
